<svg width="48" height="48" viewBox="0 0 48 48" fill="none" xmlns="http://www.w3.org/2000/svg">
<g clip-path="url(#clip0_2_47)">
<path d="M46.5938 42.1709H46.3149V31.873C46.3149 31.0964 45.6853 30.4668 44.9087 30.4668H43.4045V29.0953C43.4045 27.0909 42.1396 25.3772 40.3665 24.7083C41.0601 23.7798 41.4712 22.6285 41.4712 21.3831V19.2292C41.4712 16.159 38.9735 13.6612 35.9033 13.6612C32.8332 13.6612 30.3354 16.159 30.3354 19.2292V21.3831C30.3354 22.6272 30.7458 23.7772 31.438 24.7052C29.6608 25.372 28.3924 27.088 28.3924 29.0952V30.4667H26.8882C26.1115 30.4667 25.4819 31.0963 25.4819 31.8729V42.1708H22.5181V31.873C22.5181 31.0964 21.8885 30.4668 21.1118 30.4668H19.6076V29.0953C19.6076 27.0909 18.3428 25.3772 16.5697 24.7083C17.2632 23.7798 17.6744 22.6285 17.6744 21.3831V19.2292C17.6744 16.159 15.1766 13.6612 12.1065 13.6612C9.03638 13.6612 6.53859 16.159 6.53859 19.2292V21.3831C6.53859 22.6272 6.94894 23.7772 7.64109 24.7052C5.86387 25.372 4.59534 27.088 4.59534 29.0952V30.4667H3.09122C2.31459 30.4667 1.68497 31.0963 1.68497 31.8729V42.1708H1.40625C0.629625 42.1708 0 42.8004 0 43.5771C0 44.3537 0.629625 44.9833 1.40625 44.9833H46.5938C47.3704 44.9833 48 44.3537 48 43.5771C48 42.8004 47.3704 42.1709 46.5938 42.1709ZM33.148 19.2292C33.148 17.7098 34.3841 16.4737 35.9034 16.4737C37.4227 16.4737 38.6587 17.7098 38.6587 19.2292V21.3831C38.6587 22.9024 37.4227 24.1385 35.9034 24.1385C34.3841 24.1385 33.148 22.9024 33.148 21.3831V19.2292ZM31.2049 29.0953C31.2049 28.0614 32.046 27.2203 33.0799 27.2203H38.717C39.7508 27.2203 40.592 28.0614 40.592 29.0953V30.4668H31.2049V29.0953ZM9.35109 19.2292C9.35109 17.7098 10.5872 16.4737 12.1065 16.4737C13.6258 16.4737 14.8619 17.7098 14.8619 19.2292V21.3831C14.8619 22.9024 13.6258 24.1385 12.1065 24.1385C10.5872 24.1385 9.35109 22.9024 9.35109 21.3831V19.2292ZM7.40794 29.0953C7.40794 28.0614 8.24906 27.2203 9.28294 27.2203H14.9201C15.954 27.2203 16.7951 28.0614 16.7951 29.0953V30.4668H7.40794V29.0953ZM4.49747 42.1709V33.2793H19.7056V42.1709H4.49747ZM28.2944 42.1709V33.2793H43.5025V42.1709H28.2944Z" fill="#0000FF"/>
<path d="M13.4799 37.4503C13.3117 36.4366 11.9842 35.9617 11.2103 36.6376C10.2966 37.3632 10.679 38.8941 11.8272 39.1041C12.7717 39.3222 13.6999 38.3949 13.4799 37.4503Z" fill="#0000FF"/>
<path d="M37.2774 37.4503C37.0976 36.4302 35.7929 35.9632 35.0068 36.6375C34.0939 37.3634 34.4756 38.8935 35.6238 39.1041C36.5686 39.3224 37.4961 38.3952 37.2774 37.4503Z" fill="#0000FF"/>
<path d="M15.7091 9.73837C15.9438 9.88847 16.2061 9.96009 16.4654 9.96009C16.9291 9.96009 17.3831 9.73087 17.6514 9.31125C19.0457 7.13081 21.4191 5.82909 24 5.82909C26.581 5.82909 28.9542 7.13081 30.3485 9.31115C30.7668 9.96553 31.6365 10.1568 32.2908 9.73837C32.9451 9.31997 33.1364 8.45034 32.718 7.79606C30.8043 4.80337 27.5452 3.01669 24 3.01669C20.4548 3.01669 17.1957 4.80337 15.282 7.79606C14.8636 8.45034 15.0548 9.31997 15.7091 9.73837Z" fill="#0000FF"/>
<path d="M25.7771 12.4278C26.029 12.9057 26.5172 13.1786 27.0223 13.1786C27.2434 13.1786 27.4676 13.1263 27.6768 13.0162C28.3639 12.654 28.6272 11.8035 28.2651 11.1164C27.4253 9.52322 25.791 8.53359 23.9999 8.53359C22.2088 8.53359 20.5745 9.52331 19.7348 11.1164C19.3726 11.8035 19.6359 12.654 20.323 13.0162C21.01 13.3783 21.8607 13.115 22.2228 12.4279C22.5744 11.7606 23.2554 11.3461 23.9999 11.3461C24.7444 11.3461 25.4254 11.7606 25.7771 12.4278Z" fill="#0000FF"/>
<path d="M25.3449 15.5831C25.0779 14.5905 23.7095 14.2481 23.0059 14.9972C22.1685 15.809 22.6993 17.2943 23.8618 17.3906C24.8232 17.5154 25.6559 16.5021 25.3449 15.5831Z" fill="#0000FF"/>
</g>
<defs>
<clipPath id="clip0_2_47">
<rect width="48" height="48" fill="white"/>
</clipPath>
</defs>
</svg>
